<svg xmlns="http://www.w3.org/2000/svg" width="64" height="64" viewBox="0 0 64 64" fill="none"><path d="M11 20C11 11.516 11 7.271 13.637 4.637C16.271 2 20.516 2 29 2H35C43.484 2 47.729 2 50.363 4.637C53 7.271 53 11.516 53 20V44C53 52.484 53 56.729 50.363 59.363C47.729 62 43.484 62 35 62H29C20.516 62 16.271 62 13.637 59.363C11 56.729 11 52.484 11 44V20Z" stroke="#9D49A3" stroke-width="3.375"></path><path opacity="0.5" d="M11 8.22791C8.075 8.51591 6.107 9.16691 4.637 10.6369C2 13.2709 2 17.5159 2 25.9999V37.9999C2 46.4839 2 50.7289 4.637 53.3629C6.107 54.8329 8.075 55.4839 11 55.7719M53 8.22791C55.925 8.51591 57.893 9.16691 59.363 10.6369C62 13.2709 62 17.5159 62 25.9999V37.9999C62 46.4839 62 50.7289 59.363 53.3629C57.893 54.8329 55.925 55.4839 53 55.7719" stroke="#9D49A3" stroke-width="3.375"></path><path opacity="0.7" d="M22.999 34.9999H40.999" stroke="#9D49A3" stroke-width="3.375" stroke-linecap="round"></path><path d="M22.999 23.0001H40.999" stroke="#9D49A3" stroke-width="3.375" stroke-linecap="round"></path><path opacity="0.4" d="M22.999 47H31.999" stroke="#9D49A3" stroke-width="3.375" stroke-linecap="round"></path></svg>