<svg xmlns="http://www.w3.org/2000/svg" width="58" height="64" viewBox="0 0 58 64" fill="none"><path d="M25.999 26.0001C32.6264 26.0001 37.999 20.6275 37.999 14.0001C37.999 7.3727 32.6264 2.00012 25.999 2.00012C19.3716 2.00012 13.999 7.3727 13.999 14.0001C13.999 20.6275 19.3716 26.0001 25.999 26.0001Z" stroke="#9D49A3" stroke-width="3.375"></path><path d="M43.999 56.0001C50.6264 56.0001 55.999 50.6275 55.999 44.0001C55.999 37.3727 50.6264 32.0001 43.999 32.0001C37.3716 32.0001 31.999 37.3727 31.999 44.0001C31.999 50.6275 37.3716 56.0001 43.999 56.0001Z" stroke="#9D49A3" stroke-width="3.375"></path><path d="M40 44L42.499 47L47.998 41.333" stroke="#9D49A3" stroke-width="3.375" stroke-linecap="round" stroke-linejoin="round"></path><path d="M34.999 35.9813C32.0447 35.3214 29.0261 34.9924 25.999 35.0003C12.745 35.0003 1.99902 41.0453 1.99902 48.5003C1.99902 55.9553 1.99902 62.0003 25.999 62.0003C43.06 62.0003 47.992 58.9463 49.42 54.5003" stroke="#9D49A3" stroke-width="3.375"></path></svg>