<svg xmlns="http://www.w3.org/2000/svg" width="63" height="57" viewBox="0 0 63 57" fill="none"><path fill-rule="evenodd" clip-rule="evenodd" d="M21.9862 25.8331C22.3254 25.0142 22.5 24.1364 22.5 23.25C22.5 21.4598 21.7888 19.7429 20.523 18.477C19.2571 17.2112 17.5402 16.5 15.75 16.5C13.9598 16.5 12.2429 17.2112 10.977 18.477C9.71116 19.7429 9 21.4598 9 23.25C9 24.1364 9.17459 25.0142 9.51381 25.8331C9.85303 26.6521 10.3502 27.3962 10.977 28.023C11.6038 28.6498 12.3479 29.147 13.1669 29.4862C13.9858 29.8254 14.8636 30 15.75 30C16.6364 30 17.5142 29.8254 18.3331 29.4862C19.1521 29.147 19.8962 28.6498 20.523 28.023C21.1498 27.3962 21.647 26.6521 21.9862 25.8331ZM17.8713 21.1287C18.4339 21.6913 18.75 22.4544 18.75 23.25C18.75 24.0456 18.4339 24.8087 17.8713 25.3713C17.3087 25.9339 16.5456 26.25 15.75 26.25C14.9544 26.25 14.1913 25.9339 13.6287 25.3713C13.0661 24.8087 12.75 24.0456 12.75 23.25C12.75 22.4544 13.0661 21.6913 13.6287 21.1287C14.1913 20.5661 14.9544 20.25 15.75 20.25C16.5456 20.25 17.3087 20.5661 17.8713 21.1287ZM20.523 44.523C19.2571 45.7888 17.5402 46.5 15.75 46.5C13.9598 46.5 12.2429 45.7888 10.977 44.523C9.71116 43.2571 9 41.5402 9 39.75C9 37.9598 9.71116 36.2429 10.977 34.977C12.2429 33.7112 13.9598 33 15.75 33C17.5402 33 19.2571 33.7112 20.523 34.977C21.7888 36.2429 22.5 37.9598 22.5 39.75C22.5 41.5402 21.7888 43.2571 20.523 44.523ZM13.6287 41.8713C14.1913 42.4339 14.9544 42.75 15.75 42.75C16.5456 42.75 17.3087 42.4339 17.8713 41.8713C18.4339 41.3087 18.75 40.5457 18.75 39.75C18.75 38.9543 18.4339 38.1913 17.8713 37.6287C17.3087 37.0661 16.5456 36.75 15.75 36.75C14.9544 36.75 14.1913 37.0661 13.6287 37.6287C13.0661 38.1913 12.75 38.9543 12.75 39.75C12.75 40.5457 13.0661 41.3087 13.6287 41.8713ZM9.54918 9.54918C9.90081 9.19754 10.3777 9 10.875 9H43.125C43.6223 9 44.0992 9.19754 44.4508 9.54918C44.8025 9.90081 45 10.3777 45 10.875C45 11.3723 44.8025 11.8492 44.4508 12.2008C44.0992 12.5525 43.6223 12.75 43.125 12.75H10.875C10.3777 12.75 9.90081 12.5525 9.54918 12.2008C9.19754 11.8492 9 11.3723 9 10.875C9 10.3777 9.19754 9.90081 9.54918 9.54918ZM27.375 21.75C26.34 21.75 25.5 22.59 25.5 23.625C25.5 24.66 26.34 25.5 27.375 25.5H32.2942C33.868 23.9317 35.7304 22.6528 37.7949 21.75H27.375ZM50.25 21.0277V9.375C50.25 7.88316 49.6574 6.45242 48.6025 5.39752C47.5476 4.34263 46.1168 3.75 44.625 3.75H9.375C7.88316 3.75 6.45242 4.34263 5.39752 5.39752C4.34263 6.45242 3.75 7.88316 3.75 9.375V44.625C3.75 46.1168 4.34263 47.5476 5.39752 48.6025C6.45242 49.6574 7.88316 50.25 9.375 50.25H31.5834C32.9231 51.7469 34.5096 53.0182 36.279 54H9.375C6.8886 54 4.50403 53.0123 2.74587 51.2541C0.98772 49.496 0 47.1114 0 44.625V9.375C0 6.8886 0.98772 4.50403 2.74587 2.74587C4.50403 0.98772 6.8886 0 9.375 0H44.625C47.1114 0 49.496 0.98772 51.2541 2.74587C53.0123 4.50403 54 6.8886 54 9.375V22.6581C52.8272 21.9797 51.5708 21.4298 50.25 21.0277ZM27.0139 37.5351C27.0047 37.7722 27 38.0106 27 38.25C27 39.2706 27.0849 40.2714 27.2482 41.2457C26.7972 41.2151 26.3708 41.0224 26.0492 40.7008C25.6975 40.3492 25.5 39.8723 25.5 39.375C25.5 38.8777 25.6975 38.4008 26.0492 38.0492C26.3145 37.7839 26.6511 37.6063 27.0139 37.5351Z" fill="#9D49A3"></path><path d="M45 20.25C35.1 20.25 27 28.35 27 38.25C27 48.15 35.1 56.25 45 56.25C54.9 56.25 63 48.15 63 38.25C63 28.35 54.9 20.25 45 20.25ZM45 52.65C37.062 52.65 30.6 46.188 30.6 38.25C30.6 30.312 37.062 23.85 45 23.85C52.938 23.85 59.4 30.312 59.4 38.25C59.4 46.188 52.938 52.65 45 52.65ZM53.262 30.294L41.4 42.156L36.738 37.512L34.2 40.05L41.4 47.25L55.8 32.85L53.262 30.294Z" fill="#9D49A3"></path></svg>