<svg xmlns="http://www.w3.org/2000/svg" width="85" height="17" viewBox="0 0 85 17" fill="none"><path d="M6.272 16.5H0.128V0.42H6.272C11.432 0.42 14.6 3.42 14.6 8.46C14.6 13.5 11.432 16.5 6.272 16.5ZM6.224 3.66H3.728V13.26H6.224C9.488 13.26 10.736 12.276 10.736 8.46C10.736 4.644 9.488 3.66 6.224 3.66ZM21.9856 16.74C17.8336 16.74 15.9376 14.316 15.9376 10.5C15.9376 6.636 18.2416 4.188 22.0096 4.188C25.6336 4.188 27.7696 6.348 27.7696 9.492C27.7696 10.164 27.6736 10.86 27.6016 11.268H19.3216C19.3936 12.948 20.0656 13.62 22.0336 13.62C23.4736 13.62 24.0976 13.308 24.0976 12.564V12.42H27.6496V12.66C27.6496 15.228 25.4416 16.74 21.9856 16.74ZM21.8896 7.14C20.1616 7.14 19.4896 7.812 19.3456 9.084H24.3136C24.3856 7.836 23.5696 7.14 21.8896 7.14ZM37.2104 16.5H32.6264L27.9464 4.428H31.9544L34.8344 13.044H35.0984L37.9784 4.428H41.9144L37.2104 16.5ZM46.6889 16.5H43.0889V0.42H48.1529L50.9609 7.932L52.2569 12.06H52.4969L53.7689 7.932L56.4569 0.42H61.5209V16.5H57.9209V8.892L58.1129 5.796H57.8489L56.9129 8.94L54.4889 15.396H50.1209L47.6969 8.94L46.7369 5.796H46.4969L46.6889 8.892V16.5ZM67.1443 3.06H63.6163L63.5683 0.42H67.1443V3.06ZM67.2163 16.5H63.6163V4.428H67.2163V16.5ZM72.7972 16.5H69.2212V4.428H72.5572V6.372H72.7012C73.3012 5.148 74.3812 4.188 76.0852 4.188C78.6052 4.188 79.5412 6.06 79.5412 8.484V9.588H75.9652V8.94C75.9652 7.644 75.5572 7.236 74.4292 7.236C73.3252 7.236 72.7972 7.62 72.7972 8.94V16.5ZM84.2068 3.06H80.6788L80.6308 0.42H84.2068V3.06ZM84.2788 16.5H80.6788V4.428H84.2788V16.5Z" fill="white"></path></svg>