<svg xmlns="http://www.w3.org/2000/svg" width="54" height="54" viewBox="0 0 54 54" fill="none"><path d="M22.5 23.25C22.5 24.1364 22.3254 25.0142 21.9862 25.8331C21.647 26.6521 21.1498 27.3962 20.523 28.023C19.8962 28.6498 19.1521 29.147 18.3331 29.4862C17.5142 29.8254 16.6364 30 15.75 30C14.8636 30 13.9858 29.8254 13.1669 29.4862C12.3479 29.147 11.6038 28.6498 10.977 28.023C10.3502 27.3962 9.85303 26.6521 9.51381 25.8331C9.17459 25.0142 9 24.1364 9 23.25C9 21.4598 9.71116 19.7429 10.977 18.477C12.2429 17.2112 13.9598 16.5 15.75 16.5C17.5402 16.5 19.2571 17.2112 20.523 18.477C21.7888 19.7429 22.5 21.4598 22.5 23.25ZM18.75 23.25C18.75 22.4544 18.4339 21.6913 17.8713 21.1287C17.3087 20.5661 16.5456 20.25 15.75 20.25C14.9544 20.25 14.1913 20.5661 13.6287 21.1287C13.0661 21.6913 12.75 22.4544 12.75 23.25C12.75 24.0456 13.0661 24.8087 13.6287 25.3713C14.1913 25.9339 14.9544 26.25 15.75 26.25C16.5456 26.25 17.3087 25.9339 17.8713 25.3713C18.4339 24.8087 18.75 24.0456 18.75 23.25ZM15.75 46.5C17.5402 46.5 19.2571 45.7888 20.523 44.523C21.7888 43.2571 22.5 41.5402 22.5 39.75C22.5 37.9598 21.7888 36.2429 20.523 34.977C19.2571 33.7112 17.5402 33 15.75 33C13.9598 33 12.2429 33.7112 10.977 34.977C9.71116 36.2429 9 37.9598 9 39.75C9 41.5402 9.71116 43.2571 10.977 44.523C12.2429 45.7888 13.9598 46.5 15.75 46.5ZM15.75 42.75C14.9544 42.75 14.1913 42.4339 13.6287 41.8713C13.0661 41.3087 12.75 40.5457 12.75 39.75C12.75 38.9543 13.0661 38.1913 13.6287 37.6287C14.1913 37.0661 14.9544 36.75 15.75 36.75C16.5456 36.75 17.3087 37.0661 17.8713 37.6287C18.4339 38.1913 18.75 38.9543 18.75 39.75C18.75 40.5457 18.4339 41.3087 17.8713 41.8713C17.3087 42.4339 16.5456 42.75 15.75 42.75ZM10.875 9C10.3777 9 9.90081 9.19754 9.54918 9.54918C9.19754 9.90081 9 10.3777 9 10.875C9 11.3723 9.19754 11.8492 9.54918 12.2008C9.90081 12.5525 10.3777 12.75 10.875 12.75H43.125C43.6223 12.75 44.0992 12.5525 44.4508 12.2008C44.8025 11.8492 45 11.3723 45 10.875C45 10.3777 44.8025 9.90081 44.4508 9.54918C44.0992 9.19754 43.6223 9 43.125 9H10.875ZM25.5 23.625C25.5 22.59 26.34 21.75 27.375 21.75H43.125C43.6223 21.75 44.0992 21.9475 44.4508 22.2992C44.8025 22.6508 45 23.1277 45 23.625C45 24.1223 44.8025 24.5992 44.4508 24.9508C44.0992 25.3025 43.6223 25.5 43.125 25.5H27.375C26.34 25.5 25.5 24.66 25.5 23.625ZM27.375 37.5C26.8777 37.5 26.4008 37.6975 26.0492 38.0492C25.6975 38.4008 25.5 38.8777 25.5 39.375C25.5 39.8723 25.6975 40.3492 26.0492 40.7008C26.4008 41.0525 26.8777 41.25 27.375 41.25H43.125C43.6223 41.25 44.0992 41.0525 44.4508 40.7008C44.8025 40.3492 45 39.8723 45 39.375C45 38.8777 44.8025 38.4008 44.4508 38.0492C44.0992 37.6975 43.6223 37.5 43.125 37.5H27.375ZM9.375 0C6.8886 0 4.50403 0.98772 2.74587 2.74587C0.98772 4.50403 0 6.8886 0 9.375V44.625C0 47.1114 0.98772 49.496 2.74587 51.2541C4.50403 53.0123 6.8886 54 9.375 54H44.625C47.1114 54 49.496 53.0123 51.2541 51.2541C53.0123 49.496 54 47.1114 54 44.625V9.375C54 6.8886 53.0123 4.50403 51.2541 2.74587C49.496 0.98772 47.1114 0 44.625 0H9.375ZM3.75 9.375C3.75 7.88316 4.34263 6.45242 5.39752 5.39752C6.45242 4.34263 7.88316 3.75 9.375 3.75H44.625C46.1168 3.75 47.5476 4.34263 48.6025 5.39752C49.6574 6.45242 50.25 7.88316 50.25 9.375V44.625C50.25 46.1168 49.6574 47.5476 48.6025 48.6025C47.5476 49.6574 46.1168 50.25 44.625 50.25H9.375C7.88316 50.25 6.45242 49.6574 5.39752 48.6025C4.34263 47.5476 3.75 46.1168 3.75 44.625V9.375Z" fill="#9D49A3"></path></svg>